<svg width="198" height="65" viewBox="0 0 198 65" fill="none" xmlns="http://www.w3.org/2000/svg">
<path d="M31.8227 0.99573V26H27.7213V15.0629H15.9567V26H11.8553V0.99573H15.9567V11.717H27.7213V0.99573H31.8227ZM49.3465 26.2518C47.02 26.2518 44.8733 25.7122 42.9066 24.6329C40.9638 23.5296 39.4168 22.0065 38.2655 20.0637C37.1382 18.097 36.5746 15.8904 36.5746 13.4439C36.5746 10.9974 37.1382 8.80282 38.2655 6.86004C39.4168 4.91726 40.9638 3.40621 42.9066 2.32689C44.8733 1.22359 47.02 0.671934 49.3465 0.671934C51.697 0.671934 53.8437 1.22359 55.7865 2.32689C57.7532 3.40621 59.3003 4.91726 60.4276 6.86004C61.5548 8.80282 62.1185 10.9974 62.1185 13.4439C62.1185 15.8904 61.5548 18.097 60.4276 20.0637C59.3003 22.0065 57.7532 23.5296 55.7865 24.6329C53.8437 25.7122 51.697 26.2518 49.3465 26.2518ZM49.3465 22.6901C51.0015 22.6901 52.4766 22.3183 53.7717 21.5748C55.0669 20.8073 56.0743 19.7279 56.7938 18.3368C57.5374 16.9217 57.9091 15.2907 57.9091 13.4439C57.9091 11.5971 57.5374 9.97808 56.7938 8.58696C56.0743 7.19583 55.0669 6.1285 53.7717 5.38497C52.4766 4.64144 51.0015 4.26967 49.3465 4.26967C47.6916 4.26967 46.2165 4.64144 44.9213 5.38497C43.6261 6.1285 42.6068 7.19583 41.8632 8.58696C41.1437 9.97808 40.7839 11.5971 40.7839 13.4439C40.7839 15.2907 41.1437 16.9217 41.8632 18.3368C42.6068 19.7279 43.6261 20.8073 44.9213 21.5748C46.2165 22.3183 47.6916 22.6901 49.3465 22.6901ZM84.359 8.44305C84.359 9.71425 84.0592 10.9135 83.4595 12.0408C82.8599 13.1681 81.9005 14.0915 80.5813 14.811C79.2622 15.5066 77.5712 15.8544 75.5085 15.8544H70.9754V26H66.874V0.99573H75.5085C77.4273 0.99573 79.0463 1.33152 80.3655 2.0031C81.7086 2.65069 82.704 3.53813 83.3516 4.66542C84.0232 5.79271 84.359 7.05192 84.359 8.44305ZM75.5085 12.5085C77.0675 12.5085 78.2308 12.1607 78.9983 11.4651C79.7659 10.7456 80.1496 9.73823 80.1496 8.44305C80.1496 5.70877 78.6026 4.34163 75.5085 4.34163H70.9754V12.5085H75.5085ZM93.0916 4.30565V11.645H101.726V14.9909H93.0916V22.6541H102.806V26H88.9902V0.959754H102.806V4.30565H93.0916ZM133.357 0.99573V4.34163H122.743V11.717H131.018V15.0629H122.743V26H118.642V0.99573H133.357ZM149.282 26.2518C146.956 26.2518 144.809 25.7122 142.842 24.6329C140.899 23.5296 139.352 22.0065 138.201 20.0637C137.074 18.097 136.51 15.8904 136.51 13.4439C136.51 10.9974 137.074 8.80282 138.201 6.86004C139.352 4.91726 140.899 3.40621 142.842 2.32689C144.809 1.22359 146.956 0.671934 149.282 0.671934C151.633 0.671934 153.779 1.22359 155.722 2.32689C157.689 3.40621 159.236 4.91726 160.363 6.86004C161.49 8.80282 162.054 10.9974 162.054 13.4439C162.054 15.8904 161.49 18.097 160.363 20.0637C159.236 22.0065 157.689 23.5296 155.722 24.6329C153.779 25.7122 151.633 26.2518 149.282 26.2518ZM149.282 22.6901C150.937 22.6901 152.412 22.3183 153.707 21.5748C155.002 20.8073 156.01 19.7279 156.729 18.3368C157.473 16.9217 157.845 15.2907 157.845 13.4439C157.845 11.5971 157.473 9.97808 156.729 8.58696C156.01 7.19583 155.002 6.1285 153.707 5.38497C152.412 4.64144 150.937 4.26967 149.282 4.26967C147.627 4.26967 146.152 4.64144 144.857 5.38497C143.562 6.1285 142.542 7.19583 141.799 8.58696C141.079 9.97808 140.719 11.5971 140.719 13.4439C140.719 15.2907 141.079 16.9217 141.799 18.3368C142.542 19.7279 143.562 20.8073 144.857 21.5748C146.152 22.3183 147.627 22.6901 149.282 22.6901ZM179.797 26L174.041 15.9983H170.911V26H166.81V0.99573H175.444C177.363 0.99573 178.982 1.33152 180.301 2.0031C181.644 2.67467 182.64 3.57411 183.287 4.7014C183.959 5.82869 184.295 7.0879 184.295 8.47902C184.295 10.11 183.815 11.5971 182.855 12.9402C181.92 14.2594 180.469 15.1588 178.502 15.6385L184.69 26H179.797ZM170.911 12.7244H175.444C176.979 12.7244 178.13 12.3406 178.898 11.5731C179.689 10.8056 180.085 9.77421 180.085 8.47902C180.085 7.18384 179.701 6.17647 178.934 5.45692C178.166 4.71339 177.003 4.34163 175.444 4.34163H170.911V12.7244ZM22.4405 38.7439V64H16.2884V53.6025H6.7184V64H0.566275V38.7439H6.7184V48.6377H16.2884V38.7439H22.4405ZM33.6455 38.7439V53.8544C33.6455 55.3654 34.0173 56.5287 34.7608 57.3442C35.5043 58.1597 36.5956 58.5674 38.0347 58.5674C39.4738 58.5674 40.5771 58.1597 41.3446 57.3442C42.1122 56.5287 42.4959 55.3654 42.4959 53.8544V38.7439H48.6481V53.8184C48.6481 56.073 48.1684 57.9798 47.209 59.5388C46.2496 61.0978 44.9544 62.2731 43.3234 63.0646C41.7164 63.8561 39.9175 64.2518 37.9268 64.2518C35.9361 64.2518 34.1492 63.8681 32.5662 63.1006C31.0072 62.3091 29.7719 61.1338 28.8605 59.5748C27.9491 57.9918 27.4934 56.073 27.4934 53.8184V38.7439H33.6455ZM82.2897 38.7439V64H76.1376V48.8535L70.4891 64H65.5243L59.8398 48.8176V64H53.6877V38.7439H60.9551L68.0427 56.2289L75.0583 38.7439H82.2897ZM103.155 59.5388H93.7294L92.2183 64H85.7784L94.9166 38.7439H102.04L111.178 64H104.666L103.155 59.5388ZM101.572 54.7898L98.4424 45.5436L95.3484 54.7898H101.572ZM137.273 64H131.121L120.831 48.4218V64H114.679V38.7439H120.831L131.121 54.394V38.7439H137.273V64ZM148.604 38.7439V64H142.452V38.7439H148.604ZM171.951 38.7439V43.6728H165.259V64H159.107V43.6728H152.415V38.7439H171.951ZM197.416 38.7439L188.674 55.6533V64H182.522V55.6533L173.779 38.7439H180.759L185.652 49.3212L190.508 38.7439H197.416Z" fill="white"/>
</svg>
