<svg width="121" height="121" viewBox="0 0 121 121" fill="none" xmlns="http://www.w3.org/2000/svg">
<rect x="4.65385" y="4.65385" width="111.692" height="111.692" rx="26.3718" fill="white" stroke="white" stroke-width="9.30769"/>
<path d="M35.2381 78.2302C35.3886 78.0045 35.3886 77.4776 35.2381 76.6498C34.9371 73.9404 34.8994 72.0589 35.1252 71.0053C34.8242 66.9412 34.7113 64.5705 34.7866 63.8932C34.9371 63.2158 35.1629 62.8395 35.4639 62.7643C35.1629 62.3127 34.8618 60.657 34.5608 57.7971C34.335 54.9372 34.2974 53.0181 34.4479 52.0397C34.2974 51.4376 34.2597 50.7226 34.335 49.8948C34.4103 48.9916 34.5231 48.3896 34.6737 48.0885C34.5231 47.938 34.4103 47.3735 34.335 46.3952V41.3151L34.5608 38.3799V35.8964L35.2381 32.3968C35.0123 32.0205 35.2005 31.3431 35.8026 30.3647C35.05 28.7843 35.8402 26.8275 38.1733 24.4944C38.2485 24.3439 39.114 23.8547 40.7697 23.0269C42.1244 22.9516 43.0276 22.9516 43.4791 23.0269C44.0059 23.1021 44.7585 23.1774 45.7369 23.2526C46.7906 23.3279 47.5808 23.4408 48.1076 23.5913C49.4623 24.0429 50.1396 25.247 50.1396 27.2038V29.1229C50.2902 31.8323 50.3654 33.8643 50.3654 35.219V37.7026C50.3654 38.681 50.2902 39.2454 50.1396 39.396C50.2149 39.697 50.2149 40.412 50.1396 41.5409V43.46C49.9139 45.7931 49.8386 47.1478 49.9139 47.5241L49.1236 53.5072C49.7257 53.733 51.8706 53.8459 55.5584 53.8459H61.2029C64.5143 53.8459 66.584 53.8459 67.4119 53.8459C68.315 53.7707 68.8794 53.5072 69.1052 53.0557C69.4063 52.6041 69.632 52.002 69.7826 51.2494C69.9331 50.4968 70.046 49.6313 70.1212 48.653C70.1965 47.6746 70.2718 47.0725 70.347 46.8467C70.7986 46.4704 70.9115 44.8523 70.6857 41.9924C70.6857 41.7667 70.8362 41.2022 71.1372 40.2991C71.1372 39.2454 71.2878 38.0413 71.5888 36.6866C71.5888 35.2566 71.8146 34.0148 72.2662 32.9612C72.793 31.8323 73.1693 30.8916 73.3951 30.1389C73.7714 28.8595 74.6745 27.7682 76.1044 26.8651C77.9859 25.5104 79.7922 24.6449 81.5232 24.2686H83.5552C85.5872 24.6449 86.2646 26.5641 85.5872 30.0261C85.5872 31.155 85.2862 32.6225 84.6841 34.4288C84.0067 37.966 83.6681 40.2614 83.6681 41.3151C83.6681 42.3687 83.367 44.2879 82.765 47.0725C82.9155 48.5024 82.9155 49.4432 82.765 49.8948C82.6897 50.3463 82.6521 50.9108 82.6521 51.5881C82.5015 53.2438 82.4263 54.3727 82.4263 54.9748C82.2758 57.2326 82.2005 59.0389 82.2005 60.3936C82.2005 61.7482 82.0876 63.2158 81.8618 64.7963C81.8618 66.3767 81.5984 67.9948 81.0716 69.6506L80.7329 76.8756C80.7329 77.4024 80.9963 81.2783 81.5232 88.5033C81.9747 88.9548 82.1252 89.8579 81.9747 91.2126C81.8242 92.492 81.5608 93.3952 81.1845 93.922C80.8082 94.4488 80.3943 94.7499 79.9427 94.8251C79.5664 94.9004 78.9643 94.938 78.1364 94.938C76.4055 95.9164 75.0131 96.2927 73.9595 96.0669C73.0564 96.0669 72.1156 95.7659 71.1372 95.1638C69.5568 94.3359 68.5408 93.3199 68.0892 92.1157C68.0892 91.5889 67.9763 90.9492 67.7505 90.1966C67.6 89.444 67.6 88.6538 67.7505 87.8259C67.9011 86.9228 67.9387 85.982 67.8634 85.0037C67.8634 84.0253 67.8634 82.8964 67.8634 81.6169L67.9763 80.2623C67.8258 79.9612 67.9011 79.472 68.2021 78.7947C68.5031 78.1173 68.5408 77.5905 68.315 77.2142V74.1662L68.8794 68.4088C68.1268 67.882 68.0892 66.6402 68.7665 64.6834L68.9923 63.7803C68.0892 64.0061 67.2613 64.1189 66.5087 64.1189C64.4015 64.6458 62.0684 64.9092 59.5095 64.9092L49.3494 64.5705V65.8123C49.1989 67.0165 49.1613 68.8227 49.2365 71.231V73.3759C49.3118 75.3327 49.3494 78.1173 49.3494 81.7298C49.6505 85.6434 49.801 88.4656 49.801 90.1966L49.6881 90.9868C49.6881 91.5889 49.6128 92.1157 49.4623 92.5673C49.4623 93.9973 49.086 94.9756 48.3334 95.5025C47.6561 96.0293 46.5272 96.368 44.9467 96.5185C43.3662 96.669 41.9363 96.2551 40.6569 95.2767C38.8506 94.3736 37.9099 93.621 37.8346 93.0189C37.7593 92.4168 37.5336 91.6266 37.1573 90.6482C36.781 90.0461 36.5175 89.3311 36.367 88.5033C36.367 86.0949 36.3294 84.7402 36.2541 84.4392C36.0283 84.1382 35.9155 83.6113 35.9155 82.8587C35.9155 81.8804 35.6897 80.3375 35.2381 78.2302Z" fill="#34A751"/>
</svg>
