<svg width="274" height="63" viewBox="0 0 274 63" fill="none" xmlns="http://www.w3.org/2000/svg">
<path d="M72.9395 1.63236L67.2494 22H62.4347L58.6121 7.49754L54.6145 22L49.8289 22.0292L44.3431 1.63236H48.7201L52.3092 17.4479L56.4528 1.63236H61.0049L64.915 17.3604L68.5333 1.63236H72.9395ZM90.6347 13.567C90.6347 14.1506 90.5958 14.6758 90.518 15.1427H78.7001C78.7973 16.3099 79.2058 17.2242 79.9256 17.8856C80.6454 18.547 81.5305 18.8777 82.581 18.8777C84.0984 18.8777 85.178 18.2261 85.82 16.9227H90.2262C89.7593 18.4789 88.8644 19.7629 87.5416 20.7744C86.2188 21.7666 84.5944 22.2626 82.6685 22.2626C81.1123 22.2626 79.7116 21.9222 78.4666 21.2413C77.2411 20.541 76.2781 19.5586 75.5778 18.2941C74.8969 17.0297 74.5565 15.5707 74.5565 13.9171C74.5565 12.2442 74.8969 10.7754 75.5778 9.51096C76.2587 8.24649 77.2119 7.27383 78.4374 6.59296C79.663 5.91209 81.0734 5.57166 82.6685 5.57166C84.2053 5.57166 85.5768 5.90237 86.7829 6.56378C88.0085 7.22519 88.952 8.16868 89.6134 9.39424C90.2942 10.6003 90.6347 11.9913 90.6347 13.567ZM86.4036 12.3998C86.3841 11.3493 86.0048 10.5128 85.2656 9.8903C84.5263 9.24834 83.6217 8.92736 82.5518 8.92736C81.5402 8.92736 80.6843 9.23861 79.984 9.86112C79.3031 10.4642 78.8849 11.3104 78.7292 12.3998H86.4036ZM97.7017 0.406799V22H93.6165V0.406799H97.7017ZM100.687 13.9171C100.687 12.2442 101.028 10.7852 101.709 9.54014C102.39 8.27567 103.333 7.30301 104.539 6.62214C105.745 5.92182 107.126 5.57166 108.683 5.57166C110.686 5.57166 112.34 6.07745 113.643 7.08902C114.966 8.08114 115.851 9.48178 116.299 11.2909H111.893C111.659 10.5906 111.26 10.0459 110.696 9.65686C110.151 9.24834 109.471 9.04408 108.654 9.04408C107.486 9.04408 106.562 9.47205 105.881 10.328C105.201 11.1645 104.86 12.3609 104.86 13.9171C104.86 15.454 105.201 16.6503 105.881 17.5063C106.562 18.3428 107.486 18.761 108.654 18.761C110.307 18.761 111.387 18.0218 111.893 16.5433H116.299C115.851 18.2941 114.966 19.6851 113.643 20.7161C112.321 21.7471 110.667 22.2626 108.683 22.2626C107.126 22.2626 105.745 21.9222 104.539 21.2413C103.333 20.541 102.39 19.5683 101.709 18.3233C101.028 17.0589 100.687 15.5901 100.687 13.9171ZM126.47 22.2626C124.913 22.2626 123.513 21.9222 122.268 21.2413C121.023 20.541 120.04 19.5586 119.321 18.2941C118.62 17.0297 118.27 15.5707 118.27 13.9171C118.27 12.2636 118.63 10.8046 119.35 9.54014C120.089 8.27567 121.091 7.30301 122.355 6.62214C123.62 5.92182 125.03 5.57166 126.586 5.57166C128.143 5.57166 129.553 5.92182 130.818 6.62214C132.082 7.30301 133.074 8.27567 133.794 9.54014C134.533 10.8046 134.903 12.2636 134.903 13.9171C134.903 15.5707 134.523 17.0297 133.765 18.2941C133.026 19.5586 132.014 20.541 130.73 21.2413C129.466 21.9222 128.045 22.2626 126.47 22.2626ZM126.47 18.7027C127.209 18.7027 127.9 18.5276 128.542 18.1774C129.203 17.8078 129.728 17.2631 130.117 16.5433C130.506 15.8236 130.701 14.9482 130.701 13.9171C130.701 12.3803 130.292 11.2034 129.475 10.3864C128.678 9.54987 127.695 9.13162 126.528 9.13162C125.361 9.13162 124.379 9.54987 123.581 10.3864C122.803 11.2034 122.414 12.3803 122.414 13.9171C122.414 15.454 122.793 16.6406 123.552 17.4771C124.33 18.2941 125.303 18.7027 126.47 18.7027ZM157.975 5.60084C159.96 5.60084 161.555 6.21362 162.761 7.43918C163.986 8.64529 164.599 10.3377 164.599 12.5165V22H160.514V13.0709C160.514 11.8065 160.193 10.8435 159.551 10.1821C158.909 9.50123 158.034 9.1608 156.925 9.1608C155.816 9.1608 154.931 9.50123 154.269 10.1821C153.627 10.8435 153.306 11.8065 153.306 13.0709V22H149.221V13.0709C149.221 11.8065 148.9 10.8435 148.258 10.1821C147.616 9.50123 146.741 9.1608 145.632 9.1608C144.504 9.1608 143.609 9.50123 142.948 10.1821C142.306 10.8435 141.985 11.8065 141.985 13.0709V22H137.899V5.83428H141.985V7.78934C142.51 7.10847 143.181 6.57351 143.998 6.18444C144.835 5.79537 145.749 5.60084 146.741 5.60084C148.005 5.60084 149.134 5.87319 150.126 6.41788C151.118 6.94312 151.886 7.7018 152.431 8.69392C152.956 7.76016 153.715 7.01121 154.707 6.44706C155.719 5.88291 156.808 5.60084 157.975 5.60084ZM183.503 13.567C183.503 14.1506 183.465 14.6758 183.387 15.1427H171.569C171.666 16.3099 172.075 17.2242 172.794 17.8856C173.514 18.547 174.399 18.8777 175.45 18.8777C176.967 18.8777 178.047 18.2261 178.689 16.9227H183.095C182.628 18.4789 181.733 19.7629 180.41 20.7744C179.088 21.7666 177.463 22.2626 175.537 22.2626C173.981 22.2626 172.58 21.9222 171.335 21.2413C170.11 20.541 169.147 19.5586 168.447 18.2941C167.766 17.0297 167.425 15.5707 167.425 13.9171C167.425 12.2442 167.766 10.7754 168.447 9.51096C169.127 8.24649 170.081 7.27383 171.306 6.59296C172.532 5.91209 173.942 5.57166 175.537 5.57166C177.074 5.57166 178.446 5.90237 179.652 6.56378C180.877 7.22519 181.821 8.16868 182.482 9.39424C183.163 10.6003 183.503 11.9913 183.503 13.567ZM179.272 12.3998C179.253 11.3493 178.874 10.5128 178.134 9.8903C177.395 9.24834 176.491 8.92736 175.421 8.92736C174.409 8.92736 173.553 9.23861 172.853 9.86112C172.172 10.4642 171.754 11.3104 171.598 12.3998H179.272ZM198.195 9.18998V17.0102C198.195 17.5549 198.321 17.9537 198.574 18.2066C198.846 18.44 199.294 18.5568 199.916 18.5568H201.813V22H199.245C195.802 22 194.08 20.327 194.08 16.981V9.18998H192.154V5.83428H194.08V1.83662H198.195V5.83428H201.813V9.18998H198.195ZM211.93 22.2626C210.373 22.2626 208.973 21.9222 207.728 21.2413C206.483 20.541 205.5 19.5586 204.78 18.2941C204.08 17.0297 203.73 15.5707 203.73 13.9171C203.73 12.2636 204.09 10.8046 204.81 9.54014C205.549 8.27567 206.551 7.30301 207.815 6.62214C209.08 5.92182 210.49 5.57166 212.046 5.57166C213.603 5.57166 215.013 5.92182 216.277 6.62214C217.542 7.30301 218.534 8.27567 219.254 9.54014C219.993 10.8046 220.363 12.2636 220.363 13.9171C220.363 15.5707 219.983 17.0297 219.225 18.2941C218.485 19.5586 217.474 20.541 216.19 21.2413C214.925 21.9222 213.505 22.2626 211.93 22.2626ZM211.93 18.7027C212.669 18.7027 213.359 18.5276 214.001 18.1774C214.663 17.8078 215.188 17.2631 215.577 16.5433C215.966 15.8236 216.161 14.9482 216.161 13.9171C216.161 12.3803 215.752 11.2034 214.935 10.3864C214.138 9.54987 213.155 9.13162 211.988 9.13162C210.821 9.13162 209.838 9.54987 209.041 10.3864C208.263 11.2034 207.874 12.3803 207.874 13.9171C207.874 15.454 208.253 16.6406 209.012 17.4771C209.79 18.2941 210.762 18.7027 211.93 18.7027ZM9.42445 38.6008C10.65 38.6008 11.7394 38.8732 12.6926 39.4179C13.6458 39.9431 14.3851 40.731 14.9103 41.7815C15.455 42.8125 15.7273 44.0575 15.7273 45.5165V55H11.6421V46.0709C11.6421 44.787 11.3212 43.8046 10.6792 43.1237C10.0372 42.4234 9.16183 42.0733 8.05299 42.0733C6.9247 42.0733 6.02984 42.4234 5.36843 43.1237C4.72647 43.8046 4.40549 44.787 4.40549 46.0709V55H0.32029V33.4068H4.40549V40.8477C4.93073 40.1474 5.63105 39.6027 6.50645 39.2136C7.38185 38.8051 8.35452 38.6008 9.42445 38.6008ZM26.7904 55.2626C25.2342 55.2626 23.8335 54.9222 22.5885 54.2413C21.3435 53.541 20.3611 52.5586 19.6413 51.2941C18.941 50.0297 18.5908 48.5707 18.5908 46.9171C18.5908 45.2636 18.9507 43.8046 19.6705 42.5401C20.4097 41.2757 21.4116 40.303 22.676 39.6221C23.9405 38.9218 25.3509 38.5717 26.9071 38.5717C28.4634 38.5717 29.8738 38.9218 31.1382 39.6221C32.4027 40.303 33.3948 41.2757 34.1146 42.5401C34.8538 43.8046 35.2234 45.2636 35.2234 46.9171C35.2234 48.5707 34.8441 50.0297 34.0854 51.2941C33.3462 52.5586 32.3346 53.541 31.0507 54.2413C29.7862 54.9222 28.3661 55.2626 26.7904 55.2626ZM26.7904 51.7027C27.5297 51.7027 28.2202 51.5276 28.8622 51.1774C29.5236 50.8078 30.0489 50.2631 30.4379 49.5433C30.827 48.8236 31.0215 47.9482 31.0215 46.9171C31.0215 45.3803 30.613 44.2034 29.796 43.3864C28.9984 42.5499 28.016 42.1316 26.8488 42.1316C25.6816 42.1316 24.6992 42.5499 23.9016 43.3864C23.1235 44.2034 22.7344 45.3803 22.7344 46.9171C22.7344 48.454 23.1137 49.6406 23.8724 50.4771C24.6506 51.2941 25.6232 51.7027 26.7904 51.7027ZM42.3053 41.1687C42.8305 40.4295 43.5503 39.8167 44.4646 39.3303C45.3984 38.8246 46.4586 38.5717 47.6452 38.5717C49.0264 38.5717 50.2714 38.9121 51.3803 39.593C52.5086 40.2738 53.3937 41.2465 54.0357 42.511C54.6971 43.756 55.0278 45.2052 55.0278 46.8588C55.0278 48.5123 54.6971 49.981 54.0357 51.265C53.3937 52.5294 52.5086 53.5118 51.3803 54.2121C50.2714 54.9125 49.0264 55.2626 47.6452 55.2626C46.4586 55.2626 45.4081 55.0195 44.4938 54.5331C43.5989 54.0468 42.8694 53.434 42.3053 52.6948V62.7035H38.2201V38.8343H42.3053V41.1687ZM50.855 46.8588C50.855 45.8861 50.6508 45.0496 50.2423 44.3493C49.8532 43.6295 49.3279 43.0848 48.6665 42.7152C48.0246 42.3456 47.3243 42.1608 46.5656 42.1608C45.8263 42.1608 45.126 42.3553 44.4646 42.7444C43.8227 43.114 43.2974 43.6587 42.8889 44.3785C42.4998 45.0983 42.3053 45.9445 42.3053 46.9171C42.3053 47.8898 42.4998 48.736 42.8889 49.4558C43.2974 50.1756 43.8227 50.73 44.4646 51.1191C45.126 51.4887 45.8263 51.6735 46.5656 51.6735C47.3243 51.6735 48.0246 51.4789 48.6665 51.0899C49.3279 50.7008 49.8532 50.1464 50.2423 49.4266C50.6508 48.7068 50.855 47.8509 50.855 46.8588ZM73.0241 46.567C73.0241 47.1506 72.9852 47.6758 72.9074 48.1427H61.0895C61.1867 49.3099 61.5953 50.2242 62.315 50.8856C63.0348 51.547 63.9199 51.8777 64.9704 51.8777C66.4878 51.8777 67.5674 51.2261 68.2094 49.9227H72.6156C72.1487 51.4789 71.2538 52.7629 69.931 53.7744C68.6082 54.7666 66.9838 55.2626 65.0579 55.2626C63.5017 55.2626 62.101 54.9222 60.856 54.2413C59.6305 53.541 58.6675 52.5586 57.9672 51.2941C57.2863 50.0297 56.9459 48.5707 56.9459 46.9171C56.9459 45.2442 57.2863 43.7754 57.9672 42.511C58.6481 41.2465 59.6013 40.2738 60.8268 39.593C62.0524 38.9121 63.4628 38.5717 65.0579 38.5717C66.5948 38.5717 67.9662 38.9024 69.1723 39.5638C70.3979 40.2252 71.3414 41.1687 72.0028 42.3942C72.6837 43.6003 73.0241 44.9913 73.0241 46.567ZM68.793 45.3998C68.7735 44.3493 68.3942 43.5128 67.655 42.8903C66.9157 42.2483 66.0112 41.9274 64.9412 41.9274C63.9297 41.9274 63.0737 42.2386 62.3734 42.8611C61.6925 43.4642 61.2743 44.3104 61.1186 45.3998H68.793ZM90.3707 42.19H87.5402V55H83.3967V42.19H81.5583V38.8343H83.3967V38.0172C83.3967 36.033 83.9608 34.574 85.0891 33.6402C86.2174 32.7065 87.9196 32.2688 90.1956 32.3271V35.7704C89.2035 35.7509 88.5129 35.9163 88.1238 36.2664C87.7348 36.6166 87.5402 37.2488 87.5402 38.1631V38.8343H90.3707V42.19ZM100.196 55.2626C98.6401 55.2626 97.2395 54.9222 95.9944 54.2413C94.7494 53.541 93.767 52.5586 93.0473 51.2941C92.3469 50.0297 91.9968 48.5707 91.9968 46.9171C91.9968 45.2636 92.3567 43.8046 93.0764 42.5401C93.8157 41.2757 94.8175 40.303 96.082 39.6221C97.3464 38.9218 98.7568 38.5717 100.313 38.5717C101.869 38.5717 103.28 38.9218 104.544 39.6221C105.809 40.303 106.801 41.2757 107.521 42.5401C108.26 43.8046 108.629 45.2636 108.629 46.9171C108.629 48.5707 108.25 50.0297 107.491 51.2941C106.752 52.5586 105.741 53.541 104.457 54.2413C103.192 54.9222 101.772 55.2626 100.196 55.2626ZM100.196 51.7027C100.936 51.7027 101.626 51.5276 102.268 51.1774C102.93 50.8078 103.455 50.2631 103.844 49.5433C104.233 48.8236 104.427 47.9482 104.427 46.9171C104.427 45.3803 104.019 44.2034 103.202 43.3864C102.404 42.5499 101.422 42.1316 100.255 42.1316C99.0875 42.1316 98.1051 42.5499 97.3075 43.3864C96.5294 44.2034 96.1403 45.3803 96.1403 46.9171C96.1403 48.454 96.5197 49.6406 97.2784 50.4771C98.0565 51.2941 99.0292 51.7027 100.196 51.7027ZM115.711 41.3438C116.236 40.4878 116.917 39.8167 117.754 39.3303C118.61 38.844 119.582 38.6008 120.672 38.6008V42.8903H119.592C118.308 42.8903 117.336 43.1918 116.674 43.7949C116.032 44.3979 115.711 45.4484 115.711 46.9463V55H111.626V38.8343H115.711V41.3438ZM139.481 38.6008C140.706 38.6008 141.796 38.8732 142.749 39.4179C143.702 39.9431 144.441 40.731 144.966 41.7815C145.511 42.8125 145.783 44.0575 145.783 45.5165V55H141.698V46.0709C141.698 44.787 141.377 43.8046 140.735 43.1237C140.093 42.4234 139.218 42.0733 138.109 42.0733C136.981 42.0733 136.086 42.4234 135.425 43.1237C134.783 43.8046 134.462 44.787 134.462 46.0709V55H130.376V33.4068H134.462V40.8477C134.987 40.1474 135.687 39.6027 136.563 39.2136C137.438 38.8051 138.411 38.6008 139.481 38.6008ZM164.929 38.8343V55H160.815V52.9574C160.29 53.6577 159.599 54.2121 158.743 54.6207C157.907 55.0097 156.992 55.2043 156 55.2043C154.736 55.2043 153.617 54.9416 152.645 54.4164C151.672 53.8717 150.904 53.0838 150.339 52.0528C149.795 51.0023 149.522 49.7573 149.522 48.3178V38.8343H153.608V47.7342C153.608 49.0181 153.929 50.0102 154.571 50.7105C155.213 51.3914 156.088 51.7318 157.197 51.7318C158.325 51.7318 159.21 51.3914 159.852 50.7105C160.494 50.0102 160.815 49.0181 160.815 47.7342V38.8343H164.929ZM189.036 38.6008C191.02 38.6008 192.615 39.2136 193.822 40.4392C195.047 41.6453 195.66 43.3377 195.66 45.5165V55H191.575V46.0709C191.575 44.8065 191.254 43.8435 190.612 43.1821C189.97 42.5012 189.094 42.1608 187.986 42.1608C186.877 42.1608 185.992 42.5012 185.33 43.1821C184.688 43.8435 184.367 44.8065 184.367 46.0709V55H180.282V46.0709C180.282 44.8065 179.961 43.8435 179.319 43.1821C178.677 42.5012 177.802 42.1608 176.693 42.1608C175.565 42.1608 174.67 42.5012 174.008 43.1821C173.366 43.8435 173.045 44.8065 173.045 46.0709V55H168.96V38.8343H173.045V40.7893C173.571 40.1085 174.242 39.5735 175.059 39.1844C175.895 38.7954 176.81 38.6008 177.802 38.6008C179.066 38.6008 180.194 38.8732 181.187 39.4179C182.179 39.9431 182.947 40.7018 183.492 41.6939C184.017 40.7602 184.776 40.0112 185.768 39.4471C186.779 38.8829 187.869 38.6008 189.036 38.6008ZM198.486 46.8588C198.486 45.2247 198.807 43.7754 199.449 42.511C200.11 41.2465 200.995 40.2738 202.104 39.593C203.233 38.9121 204.487 38.5717 205.869 38.5717C207.075 38.5717 208.125 38.8148 209.02 39.3012C209.934 39.7875 210.664 40.4003 211.208 41.1395V38.8343H215.323V55H211.208V52.6364C210.683 53.3951 209.954 54.0273 209.02 54.5331C208.106 55.0195 207.045 55.2626 205.839 55.2626C204.478 55.2626 203.233 54.9125 202.104 54.2121C200.995 53.5118 200.11 52.5294 199.449 51.265C198.807 49.981 198.486 48.5123 198.486 46.8588ZM211.208 46.9171C211.208 45.925 211.014 45.0788 210.625 44.3785C210.236 43.6587 209.711 43.114 209.049 42.7444C208.388 42.3553 207.678 42.1608 206.919 42.1608C206.16 42.1608 205.46 42.3456 204.818 42.7152C204.176 43.0848 203.651 43.6295 203.242 44.3493C202.853 45.0496 202.659 45.8861 202.659 46.8588C202.659 47.8314 202.853 48.6874 203.242 49.4266C203.651 50.1464 204.176 50.7008 204.818 51.0899C205.479 51.4789 206.18 51.6735 206.919 51.6735C207.678 51.6735 208.388 51.4887 209.049 51.1191C209.711 50.73 210.236 50.1853 210.625 49.485C211.014 48.7652 211.208 47.9093 211.208 46.9171ZM228.271 38.6008C230.197 38.6008 231.753 39.2136 232.94 40.4392C234.126 41.6453 234.72 43.3377 234.72 45.5165V55H230.635V46.0709C230.635 44.787 230.314 43.8046 229.672 43.1237C229.03 42.4234 228.154 42.0733 227.045 42.0733C225.917 42.0733 225.022 42.4234 224.361 43.1237C223.719 43.8046 223.398 44.787 223.398 46.0709V55H219.313V38.8343H223.398V40.8477C223.943 40.1474 224.633 39.6027 225.47 39.2136C226.326 38.8051 227.259 38.6008 228.271 38.6008ZM240.676 36.9084C239.957 36.9084 239.354 36.6847 238.867 36.2373C238.4 35.7704 238.167 35.1965 238.167 34.5156C238.167 33.8348 238.4 33.2706 238.867 32.8232C239.354 32.3563 239.957 32.1229 240.676 32.1229C241.396 32.1229 241.989 32.3563 242.456 32.8232C242.943 33.2706 243.186 33.8348 243.186 34.5156C243.186 35.1965 242.943 35.7704 242.456 36.2373C241.989 36.6847 241.396 36.9084 240.676 36.9084ZM242.69 38.8343V55H238.605V38.8343H242.69ZM251.482 42.19V50.0102C251.482 50.5549 251.609 50.9537 251.862 51.2066C252.134 51.44 252.581 51.5568 253.204 51.5568H255.101V55H252.533C249.09 55 247.368 53.327 247.368 49.981V42.19H245.442V38.8343H247.368V34.8366H251.482V38.8343H255.101V42.19H251.482ZM273.504 38.8343L263.496 62.6452H259.148L262.649 54.5915L256.171 38.8343H260.753L264.925 50.1269L269.157 38.8343H273.504Z" fill="#005014"/>
</svg>
