<svg width="27" height="29" viewBox="0 0 27 29" fill="none" xmlns="http://www.w3.org/2000/svg">
<path d="M9.27092 1.59475C5.91634 2.7438 3.0553 5.2578 1.4667 8.42731C0.911455 9.52237 0.510447 10.6868 0.271385 11.8899C-0.337838 14.882 0.0863047 18.0669 1.4667 20.7969C2.36125 22.5783 3.6491 24.1591 5.20686 25.393C6.67979 26.5652 8.39179 27.4289 10.2117 27.9147C12.5021 28.5317 14.9467 28.5162 17.2602 27.9919C19.3501 27.5137 21.3243 26.5112 22.8975 25.0614C24.5632 23.5268 25.7508 21.514 26.3831 19.3471C27.0695 16.9796 27.162 14.4578 26.7302 12.0364C22.4116 12.0364 18.0931 12.0364 13.7668 12.0364C13.7668 13.8255 13.7668 15.6223 13.7668 17.4114C16.2654 17.4114 18.7717 17.4114 21.2703 17.4114C20.9773 19.1311 19.9593 20.6966 18.5095 21.6683C17.5995 22.2775 16.5585 22.6785 15.4788 22.8636C14.3915 23.0487 13.2733 23.0718 12.1936 22.8559C11.0909 22.6399 10.0421 22.1772 9.1244 21.5295C7.65918 20.5038 6.54098 18.9923 5.97032 17.3035C5.38423 15.5838 5.37652 13.6635 5.97032 11.9438C6.37904 10.7331 7.06538 9.60719 7.96765 8.69722C9.07813 7.55589 10.5202 6.74616 12.078 6.41456C13.4121 6.12922 14.8156 6.18321 16.1189 6.5765C17.2294 6.91582 18.2473 7.51733 19.0879 8.31934C19.9362 7.47877 20.7768 6.63049 21.625 5.78991C22.0646 5.33492 22.535 4.90307 22.9669 4.43265C21.6867 3.24505 20.1752 2.28881 18.5327 1.68729C15.5868 0.584524 12.2476 0.561389 9.27092 1.59475Z" fill="white"/>
<path d="M9.27088 1.5947C12.2476 0.561333 15.5867 0.584468 18.548 1.67953C20.1906 2.28104 21.6944 3.23729 22.9822 4.42489C22.5504 4.88759 22.0877 5.32715 21.6404 5.78214C20.7921 6.62272 19.9516 7.471 19.1033 8.31157C18.2627 7.50956 17.2448 6.90034 16.1343 6.56873C14.831 6.17544 13.4275 6.12146 12.0934 6.40679C10.5356 6.73839 9.09351 7.55583 7.98303 8.68945C7.08076 9.59943 6.39442 10.7253 5.9857 11.9361C4.48192 10.7716 2.97814 9.59943 1.47437 8.43496C3.05526 5.25775 5.91629 2.74374 9.27088 1.5947Z" fill="#E94435"/>
<path d="M0.271385 11.8898C0.510447 10.6868 0.919167 9.52231 1.4667 8.42725C2.97047 9.59171 4.47425 10.7639 5.97803 11.9283C5.38423 13.6481 5.39194 15.5683 5.97803 17.288C4.47425 18.4524 2.97047 19.6246 1.4667 20.7891C0.0863047 18.0746 -0.337838 14.8819 0.271385 11.8898Z" fill="#F8BB15"/>
<path d="M13.7747 12.0286C18.0932 12.0286 22.4118 12.0286 26.738 12.0286C27.1699 14.4501 27.0773 16.9718 26.391 19.3393C25.7586 21.5063 24.571 23.5267 22.9053 25.0537C21.4478 23.92 19.9826 22.7864 18.5328 21.6528C19.9826 20.6888 21.0005 19.1157 21.2936 17.396C18.795 17.396 16.2887 17.396 13.7901 17.396C13.767 15.6146 13.7747 13.8254 13.7747 12.0286Z" fill="#547DBE"/>
<path d="M1.4668 20.7968C2.97058 19.6323 4.47435 18.4601 5.97813 17.2957C6.5488 18.9923 7.66699 20.496 9.13221 21.5217C10.0499 22.1695 11.0987 22.6245 12.2015 22.8481C13.2811 23.064 14.407 23.0409 15.4866 22.8558C16.5663 22.6707 17.6074 22.2697 18.5173 21.6605C19.9748 22.7941 21.4401 23.9277 22.8899 25.0614C21.3167 26.5189 19.3425 27.5137 17.2526 27.9918C14.9468 28.5162 12.5022 28.5316 10.2041 27.9147C8.38418 27.4288 6.67218 26.5651 5.19925 25.393C3.6492 24.1514 2.36135 22.5705 1.4668 20.7968Z" fill="#34A751"/>
</svg>
