<svg width="19" height="12" viewBox="0 0 19 12" fill="none" xmlns="http://www.w3.org/2000/svg">
<path d="M18 6H9.5007M1.63034 4.8271L6.9509 1.1894C7.18806 1.04723 7.45631 0.96506 7.7324 0.950014C8.00849 0.934967 8.28409 0.987497 8.53529 1.10305C8.78649 1.2186 9.00571 1.39368 9.17394 1.61312C9.34217 1.83255 9.45433 2.08971 9.5007 2.3623V9.63771C9.45433 9.91029 9.34217 10.1675 9.17394 10.3869C9.00571 10.6063 8.78649 10.7814 8.53529 10.897C8.28409 11.0125 8.00849 11.065 7.7324 11.05C7.45631 11.0349 7.18806 10.9528 6.9509 10.8106L1.64733 7.17291C1.44991 7.04816 1.28699 6.8758 1.17354 6.67167C1.06009 6.46754 0.999748 6.23818 0.998056 6.00465C0.996363 5.77111 1.05337 5.5409 1.16385 5.33515C1.27433 5.12939 1.43474 4.9547 1.63034 4.8271Z" stroke="black" stroke-width="1.69986" stroke-linecap="round" stroke-linejoin="round"/>
</svg>
