<svg width="31" height="25" viewBox="0 0 31 25" fill="none" xmlns="http://www.w3.org/2000/svg">
<path d="M27.4114 5.96256C27.207 4.50413 26.4627 3.17281 25.3227 2.22679C24.1828 1.28077 22.7285 0.787485 21.242 0.842608C19.7554 0.89773 18.3425 1.49733 17.2773 2.52512C16.2121 3.5529 15.5705 4.93562 15.4769 6.40509C9.38933 8.89011 3.43932 2.71162 3.43932 2.71162C1.71966 12.924 6.87863 17.6047 6.87863 17.6047C4.5399 19.7323 0 19.7323 0 19.7323C0 19.7323 2.71706 24.8384 14.7547 24.8384C26.7923 24.8384 27.5145 11.2219 27.5145 11.2219C28.6485 10.8135 29.6076 10.0341 30.233 9.0127C30.8585 7.99127 31.1128 6.78909 30.9538 5.60512C29.794 5.87759 28.6029 5.99776 27.4114 5.96256Z" fill="#00C2FF"/>
</svg>
